# xmcd
#
# Track frame offsets: 
#        150
#        25141
#        50623
#        77557
#        100792
#        135910
#        151525
#        174700
#        206560
#        228466
#        250388
#        268212
#        303804
#
# Disc length: 4326 seconds
#
# Revision: 0
# Processed by: cddbd v1.5.2PL0 Copyright (c) Steve Scherf et al.
# Submitted via: ExactAudioCopy v1.0b2
#
DISCID=9f10e40d
DTITLE=Jay Jesse Johnson - Run With The Wolf
DYEAR=2012
DGENRE=Rock
TTITLE0=Hell Train
TTITLE1=Rollin' and Tumblin'
TTITLE2=Run With The Wolf
TTITLE3=Black Eldorado
TTITLE4=Weight Of The World
TTITLE5=Through With Love
TTITLE6=Down This Road
TTITLE7=Dreamland
TTITLE8=Mountain High
TTITLE9=Winds Of Change
TTITLE10=Don't Tread On Me
TTITLE11=Fate Of Tomorrow
TTITLE12=Inquisition
EXTD=
EXTT0=
EXTT1=
EXTT2=
EXTT3=
EXTT4=
EXTT5=
EXTT6=
EXTT7=
EXTT8=
EXTT9=
EXTT10=
EXTT11=
EXTT12=
PLAYORDER=
